<svg width="72" height="76" viewBox="0 0 72 76" fill="none" xmlns="http://www.w3.org/2000/svg">
<g filter="url(#filter0_d_58_619)">
<path d="M13.5242 6.70681C11.5784 6.70681 10.0009 8.2843 10.0009 10.2302V59.0997C10.0009 60.6338 11.2448 61.8759 12.7771 61.8759H58.3125C59.8458 61.8759 61.0888 60.633 61.0888 59.0997V10.23C61.0888 8.28416 59.5113 6.70667 57.5654 6.70667L13.5242 6.70681Z" fill="url(#paint0_linear_58_619)"/>
</g>
<path d="M10 42.6565V59.0987C10 60.6331 11.2439 61.8758 12.7771 61.8758H58.3124C59.8468 61.8758 61.0894 60.6331 61.0894 59.0987V42.6565H10Z" fill="url(#paint1_linear_58_619)"/>
<path d="M57.5655 6.70679H13.5242C11.5784 6.70679 10.0009 8.28414 10.0009 10.23V19.2644H61.0889V10.23C61.0889 8.28414 59.5114 6.70679 57.5655 6.70679Z" fill="url(#paint2_linear_58_619)"/>
<path d="M25.0234 28.1446H18.688C17.5634 28.1446 16.6516 27.2329 16.6516 26.1082V24.1849C16.6516 23.0603 17.5634 22.1486 18.688 22.1486H25.0234C26.148 22.1486 27.0598 23.0603 27.0598 24.1849V26.1082C27.0598 27.233 26.148 28.1446 25.0234 28.1446Z" fill="#060606"/>
<path d="M38.7123 28.1446H32.3769C31.2523 28.1446 30.3405 27.2329 30.3405 26.1082V24.1849C30.3405 23.0603 31.2523 22.1486 32.3769 22.1486H38.7123C39.8369 22.1486 40.7487 23.0603 40.7487 24.1849V26.1082C40.7487 27.233 39.8369 28.1446 38.7123 28.1446Z" fill="#060606"/>
<path d="M52.4016 28.1446H46.0662C44.9415 28.1446 44.0298 27.2329 44.0298 26.1082V24.1849C44.0298 23.0603 44.9415 22.1486 46.0662 22.1486H52.4016C53.5262 22.1486 54.438 23.0603 54.438 24.1849V26.1082C54.438 27.233 53.5262 28.1446 52.4016 28.1446Z" fill="#060606"/>
<path d="M25.0234 37.7608H18.688C17.5634 37.7608 16.6516 36.8491 16.6516 35.7244V33.8012C16.6516 32.6765 17.5634 31.7648 18.688 31.7648H25.0234C26.148 31.7648 27.0598 32.6765 27.0598 33.8012V35.7244C27.0598 36.8491 26.148 37.7608 25.0234 37.7608Z" fill="#060606"/>
<path d="M38.7123 37.7608H32.3769C31.2523 37.7608 30.3405 36.8491 30.3405 35.7244V33.8012C30.3405 32.6765 31.2523 31.7648 32.3769 31.7648H38.7123C39.8369 31.7648 40.7487 32.6765 40.7487 33.8012V35.7244C40.7487 36.8491 39.8369 37.7608 38.7123 37.7608Z" fill="#060606"/>
<path d="M52.4016 37.7608H46.0662C44.9415 37.7608 44.0298 36.8491 44.0298 35.7244V33.8012C44.0298 32.6765 44.9415 31.7648 46.0662 31.7648H52.4016C53.5262 31.7648 54.438 32.6765 54.438 33.8012V35.7244C54.438 36.8491 53.5262 37.7608 52.4016 37.7608Z" fill="#060606"/>
<path d="M25.0234 47.3776H18.688C17.5634 47.3776 16.6516 46.4659 16.6516 45.3412V43.418C16.6516 42.2933 17.5634 41.3816 18.688 41.3816H25.0234C26.148 41.3816 27.0598 42.2933 27.0598 43.418V45.3412C27.0598 46.4659 26.148 47.3776 25.0234 47.3776Z" fill="#060606"/>
<path d="M38.7123 47.3776H32.3769C31.2523 47.3776 30.3405 46.4659 30.3405 45.3412V43.418C30.3405 42.2933 31.2523 41.3816 32.3769 41.3816H38.7123C39.8369 41.3816 40.7487 42.2933 40.7487 43.418V45.3412C40.7487 46.4659 39.8369 47.3776 38.7123 47.3776Z" fill="#060606"/>
<path d="M52.4016 47.3776H46.0662C44.9415 47.3776 44.0298 46.4659 44.0298 45.3412V43.418C44.0298 42.2933 44.9415 41.3816 46.0662 41.3816H52.4016C53.5262 41.3816 54.438 42.2933 54.438 43.418V45.3412C54.438 46.4659 53.5262 47.3776 52.4016 47.3776Z" fill="#060606"/>
<path d="M25.0234 56.9935H18.688C17.5634 56.9935 16.6516 56.0817 16.6516 54.9571V53.0338C16.6516 51.9092 17.5634 50.9974 18.688 50.9974H25.0234C26.148 50.9974 27.0598 51.9092 27.0598 53.0338V54.9571C27.0598 56.0817 26.148 56.9935 25.0234 56.9935Z" fill="#060606"/>
<path d="M38.7123 56.9935H32.3769C31.2523 56.9935 30.3405 56.0817 30.3405 54.9571V53.0338C30.3405 51.9092 31.2523 50.9974 32.3769 50.9974H38.7123C39.8369 50.9974 40.7487 51.9092 40.7487 53.0338V54.9571C40.7487 56.0817 39.8369 56.9935 38.7123 56.9935Z" fill="#060606"/>
<path d="M22.9869 9.76056H18.5747C17.2625 9.76056 16.1988 8.69683 16.1988 7.38471V4.49987C16.1988 3.18775 17.2625 2.12402 18.5747 2.12402H22.9869C24.299 2.12402 25.3628 3.18775 25.3628 4.49987V7.38471C25.3626 8.69697 24.299 9.76056 22.9869 9.76056Z" fill="url(#paint3_linear_58_619)"/>
<path d="M22.9869 9.76056H18.5747C17.2625 9.76056 16.1988 8.69683 16.1988 7.38471V4.49987C16.1988 3.18775 17.2625 2.12402 18.5747 2.12402H22.9869C24.299 2.12402 25.3628 3.18775 25.3628 4.49987V7.38471C25.3626 8.69697 24.299 9.76056 22.9869 9.76056Z" fill="#666666"/>
<path d="M37.7509 9.76056H33.3386C32.0265 9.76056 30.9628 8.69683 30.9628 7.38471V4.49987C30.9628 3.18775 32.0265 2.12402 33.3386 2.12402H37.7509C39.063 2.12402 40.1267 3.18775 40.1267 4.49987V7.38471C40.1266 8.69697 39.063 9.76056 37.7509 9.76056Z" fill="#666666"/>
<path d="M52.5147 9.76056H48.1024C46.7903 9.76056 45.7266 8.69683 45.7266 7.38471V4.49987C45.7266 3.18775 46.7903 2.12402 48.1024 2.12402H52.5147C53.8268 2.12402 54.8905 3.18775 54.8905 4.49987V7.38471C54.8904 8.69697 53.8268 9.76056 52.5147 9.76056Z" fill="#666666"/>
<defs>
<filter id="filter0_d_58_619" x="0.000854492" y="0.706665" width="71.0879" height="75.1693" filterUnits="userSpaceOnUse" color-interpolation-filters="sRGB">
<feFlood flood-opacity="0" result="BackgroundImageFix"/>
<feColorMatrix in="SourceAlpha" type="matrix" values="0 0 0 0 0 0 0 0 0 0 0 0 0 0 0 0 0 0 127 0" result="hardAlpha"/>
<feOffset dy="4"/>
<feGaussianBlur stdDeviation="5"/>
<feComposite in2="hardAlpha" operator="out"/>
<feColorMatrix type="matrix" values="0 0 0 0 0 0 0 0 0 0.403922 0 0 0 0 0.670588 0 0 0 0.1 0"/>
<feBlend mode="normal" in2="BackgroundImageFix" result="effect1_dropShadow_58_619"/>
<feBlend mode="normal" in="SourceGraphic" in2="effect1_dropShadow_58_619" result="shape"/>
</filter>
<linearGradient id="paint0_linear_58_619" x1="35.5448" y1="6.70667" x2="35.5448" y2="61.8759" gradientUnits="userSpaceOnUse">
<stop stop-color="#ECE49E"/>
<stop offset="0.5" stop-color="#D7BC70"/>
<stop offset="1" stop-color="#AB8B51"/>
</linearGradient>
<linearGradient id="paint1_linear_58_619" x1="35.5448" y1="52.425" x2="35.5448" y2="60.6295" gradientUnits="userSpaceOnUse">
<stop offset="0.055" stop-color="#C6A864"/>
<stop offset="0.895" stop-color="#ECE49E"/>
</linearGradient>
<linearGradient id="paint2_linear_58_619" x1="35.5448" y1="8.91283" x2="35.5448" y2="19.8604" gradientUnits="userSpaceOnUse">
<stop stop-color="#F6F6F6"/>
<stop offset="0.243" stop-color="#F6F6F6"/>
<stop offset="0.665" stop-color="#F6F6F6"/>
<stop offset="1" stop-color="#F6F6F6"/>
</linearGradient>
<linearGradient id="paint3_linear_58_619" x1="19.8534" y1="3.45509" x2="21.7201" y2="8.46122" gradientUnits="userSpaceOnUse">
<stop stop-color="#FEF0AE"/>
<stop offset="1" stop-color="#FBC56D"/>
</linearGradient>
</defs>
</svg>
