<svg width="32" height="32" viewBox="0 0 32 32" fill="none" xmlns="http://www.w3.org/2000/svg">
<path d="M10.6667 2.6665V6.6665" stroke="#D7BC70" stroke-miterlimit="10" stroke-linecap="round" stroke-linejoin="round"/>
<path d="M21.3333 2.6665V6.6665" stroke="#D7BC70" stroke-miterlimit="10" stroke-linecap="round" stroke-linejoin="round"/>
<path d="M4.66666 12.1201H27.3333" stroke="#D7BC70" stroke-width="1.5" stroke-miterlimit="10" stroke-linecap="round" stroke-linejoin="round"/>
<path d="M29.3333 25.3333C29.3333 26.3333 29.0533 27.28 28.56 28.08C27.64 29.6267 25.9467 30.6667 24 30.6667C22.6533 30.6667 21.4267 30.1733 20.4933 29.3333C20.08 28.9867 19.72 28.56 19.44 28.08C18.9467 27.28 18.6667 26.3333 18.6667 25.3333C18.6667 22.3867 21.0533 20 24 20C25.6 20 27.0267 20.7066 28 21.8133C28.8267 22.76 29.3333 23.9867 29.3333 25.3333Z" stroke="#D7BC70" stroke-width="1.5" stroke-miterlimit="10" stroke-linecap="round" stroke-linejoin="round"/>
<path d="M21.92 25.3335L23.24 26.6535L26.08 24.0269" stroke="#D7BC70" stroke-width="1.5" stroke-linecap="round" stroke-linejoin="round"/>
<path d="M28 11.3332V21.8132C27.0267 20.7065 25.6 19.9998 24 19.9998C21.0533 19.9998 18.6667 22.3865 18.6667 25.3332C18.6667 26.3332 18.9467 27.2798 19.44 28.0798C19.72 28.5598 20.08 28.9865 20.4933 29.3332H10.6667C6 29.3332 4 26.6665 4 22.6665V11.3332C4 7.33317 6 4.6665 10.6667 4.6665H21.3333C26 4.6665 28 7.33317 28 11.3332Z" stroke="#D7BC70" stroke-width="1.5" stroke-miterlimit="10" stroke-linecap="round" stroke-linejoin="round"/>
<path d="M15.994 18.2668H16.0059" stroke="#D7BC70" stroke-width="2" stroke-linecap="round" stroke-linejoin="round"/>
<path d="M11.0591 18.2668H11.0711" stroke="#D7BC70" stroke-width="2" stroke-linecap="round" stroke-linejoin="round"/>
<path d="M11.0591 22.2668H11.0711" stroke="#D7BC70" stroke-width="2" stroke-linecap="round" stroke-linejoin="round"/>
</svg>
