<svg width="76" height="76" viewBox="0 0 76 76" fill="none" xmlns="http://www.w3.org/2000/svg">
<g filter="url(#filter0_d_197_2333)">
<path d="M13 10C13 7.23858 15.2386 5 18 5H58C60.7614 5 63 7.23858 63 10V50C63 52.7614 60.7614 55 58 55H18C15.2386 55 13 52.7614 13 50V10Z" fill="#D7BC70" shape-rendering="crispEdges"/>
<path d="M48 24.5H42" stroke="white" stroke-width="1.5" stroke-miterlimit="10" stroke-linecap="round" stroke-linejoin="round"/>
<path d="M32 24.5H28" stroke="white" stroke-width="1.5" stroke-miterlimit="10" stroke-linecap="round" stroke-linejoin="round"/>
<path d="M36 28C37.933 28 39.5 26.433 39.5 24.5C39.5 22.567 37.933 21 36 21C34.067 21 32.5 22.567 32.5 24.5C32.5 26.433 34.067 28 36 28Z" stroke="white" stroke-width="1.5" stroke-miterlimit="10" stroke-linecap="round" stroke-linejoin="round"/>
<path d="M48 35.5H44" stroke="white" stroke-width="1.5" stroke-miterlimit="10" stroke-linecap="round" stroke-linejoin="round"/>
<path d="M34 35.5H28" stroke="white" stroke-width="1.5" stroke-miterlimit="10" stroke-linecap="round" stroke-linejoin="round"/>
<path d="M40 39C41.933 39 43.5 37.433 43.5 35.5C43.5 33.567 41.933 32 40 32C38.067 32 36.5 33.567 36.5 35.5C36.5 37.433 38.067 39 40 39Z" stroke="white" stroke-width="1.5" stroke-miterlimit="10" stroke-linecap="round" stroke-linejoin="round"/>
</g>
<defs>
<filter id="filter0_d_197_2333" x="0" y="0" width="76" height="76" filterUnits="userSpaceOnUse" color-interpolation-filters="sRGB">
<feFlood flood-opacity="0" result="BackgroundImageFix"/>
<feColorMatrix in="SourceAlpha" type="matrix" values="0 0 0 0 0 0 0 0 0 0 0 0 0 0 0 0 0 0 127 0" result="hardAlpha"/>
<feOffset dy="8"/>
<feGaussianBlur stdDeviation="6.5"/>
<feComposite in2="hardAlpha" operator="out"/>
<feColorMatrix type="matrix" values="0 0 0 0 0 0 0 0 0 0 0 0 0 0 0 0 0 0 0.1 0"/>
<feBlend mode="normal" in2="BackgroundImageFix" result="effect1_dropShadow_197_2333"/>
<feBlend mode="normal" in="SourceGraphic" in2="effect1_dropShadow_197_2333" result="shape"/>
</filter>
</defs>
</svg>
