<svg width="17" height="24" viewBox="0 0 17 24" fill="none" xmlns="http://www.w3.org/2000/svg">
<g clip-path="url(#clip0_8_523)">
<path d="M10.6543 0.389359C9.87554 0.141585 9.02603 0 8.15882 0C5.66338 0 3.41572 1.13268 1.91138 2.92019L5.76957 6.15895L10.6543 0.389359Z" fill="#1A73E8"/>
<path d="M1.9114 2.92019C0.725624 4.33604 0 6.17665 0 8.15884C0 9.69858 0.300868 10.9374 0.814114 12.0524L5.76959 6.15895L1.9114 2.92019Z" fill="#EA4335"/>
<path d="M8.17648 5.04397C9.9109 5.04397 11.309 6.44212 11.309 8.17654C11.309 8.93756 11.0259 9.64548 10.5657 10.1941C10.5657 10.1941 13.0258 7.25623 15.4327 4.40684C14.4416 2.49544 12.7249 1.04419 10.6542 0.389359L5.76953 6.15895C6.35357 5.48642 7.20308 5.04397 8.17648 5.04397Z" fill="#4285F4"/>
<path d="M8.17663 11.2914C6.44222 11.2914 5.04406 9.89326 5.04406 8.15884C5.04406 7.39782 5.30954 6.68989 5.76969 6.15895L0.814209 12.0524C1.66372 13.9284 3.07957 15.4505 4.53082 17.3442L10.5659 10.1764C9.98184 10.8667 9.13233 11.2914 8.17663 11.2914Z" fill="#FBBC04"/>
<path d="M10.4596 19.3264C13.1852 15.0611 16.3531 13.132 16.3531 8.17654C16.3531 6.81378 16.0169 5.53952 15.4328 4.40684L4.53076 17.3442C4.99091 17.9459 5.46876 18.6361 5.92891 19.3441C7.59254 21.9103 7.13239 23.4323 8.19428 23.4323C9.25616 23.4323 8.79601 21.8926 10.4596 19.3264Z" fill="#34A853"/>
</g>
<defs>
<clipPath id="clip0_8_523">
<rect width="16.3902" height="24" fill="white"/>
</clipPath>
</defs>
</svg>
