<svg width="101" height="100" viewBox="0 0 101 100" fill="none" xmlns="http://www.w3.org/2000/svg">
<rect x="1.25" y="0.5" width="99" height="99" stroke="black"/>
<path d="M46.6667 81.25H32C29.4167 81.25 27.125 81.1667 25.0834 80.875C14.125 79.6667 11.1667 74.5 11.1667 60.4167V39.5833C11.1667 25.5 14.125 20.3333 25.0834 19.125C27.125 18.8333 29.4167 18.75 32 18.75H46.4167" stroke="#D7BC70" stroke-width="3.5" stroke-linecap="round" stroke-linejoin="round"/>
<path d="M63.3333 18.75H69.5C72.0833 18.75 74.375 18.8333 76.4166 19.125C87.375 20.3333 90.3333 25.5 90.3333 39.5833V60.4167C90.3333 74.5 87.375 79.6667 76.4166 80.875C74.375 81.1667 72.0833 81.25 69.5 81.25H63.3333" stroke="#D7BC70" stroke-width="3.5" stroke-linecap="round" stroke-linejoin="round"/>
<path d="M63.25 8.3335V91.6668" stroke="white" stroke-width="3.5" stroke-linecap="round" stroke-linejoin="round"/>
<path d="M46.977 49.9998H47.0144" stroke="white" stroke-width="7" stroke-linecap="round" stroke-linejoin="round"/>
<path d="M30.3103 49.9998H30.3477" stroke="white" stroke-width="7" stroke-linecap="round" stroke-linejoin="round"/>
</svg>
