<svg width="100" height="100" viewBox="0 0 100 100" fill="none" xmlns="http://www.w3.org/2000/svg">
<path d="M91.6667 47.9168V64.5835C91.6667 79.1668 83.3333 85.4168 70.8333 85.4168H29.1667C16.6667 85.4168 8.33334 79.1668 8.33334 64.5835V35.4168C8.33334 20.8335 16.6667 14.5835 29.1667 14.5835H50" stroke="#D7BC70" stroke-width="3.5" stroke-miterlimit="10" stroke-linecap="round" stroke-linejoin="round"/>
<path d="M29.1667 37.5L42.2083 47.9167C46.5 51.3333 53.5417 51.3333 57.8333 47.9167" stroke="#D7BC70" stroke-width="3.5" stroke-miterlimit="10" stroke-linecap="round" stroke-linejoin="round"/>
<path d="M81.1667 11.75L82.3333 14.125C82.9167 15.2916 84.375 16.375 85.6666 16.625L87.25 16.875C92 17.6666 93.125 21.1667 89.7083 24.625L88.2499 26.0833C87.2916 27.0833 86.75 29 87.0417 30.3333L87.25 31.2083C88.5417 36.9583 85.5 39.1666 80.5 36.1666L79.4166 35.5416C78.125 34.7916 76.0417 34.7916 74.75 35.5416L73.6666 36.1666C68.6249 39.2083 65.5833 36.9583 66.9166 31.2083L67.1249 30.3333C67.4166 29 66.875 27.0833 65.9167 26.0833L64.4583 24.625C61.0416 21.1667 62.1666 17.6666 66.9166 16.875L68.5 16.625C69.75 16.4167 71.2499 15.2916 71.8333 14.125L72.9999 11.75C75.2499 7.20833 78.9167 7.20833 81.1667 11.75Z" stroke="white" stroke-width="3.5" stroke-linecap="round" stroke-linejoin="round"/>
</svg>
