<svg width="101" height="100" viewBox="0 0 101 100" fill="none" xmlns="http://www.w3.org/2000/svg">
<path d="M35.6666 50L45.7083 60.0833L65.8333 39.9167" stroke="#D7BC70" stroke-width="3.5" stroke-linecap="round" stroke-linejoin="round"/>
<path d="M45.5416 10.2083C48.4166 7.75 53.125 7.75 56.0416 10.2083L62.625 15.875C63.875 16.9583 66.2083 17.8333 67.875 17.8333H74.9583C79.375 17.8333 83 21.4583 83 25.875V32.9583C83 34.5833 83.875 36.9583 84.9583 38.2083L90.625 44.7917C93.0833 47.6667 93.0833 52.375 90.625 55.2917L84.9583 61.875C83.875 63.125 83 65.4583 83 67.125V74.2083C83 78.625 79.375 82.25 74.9583 82.25H67.875C66.25 82.25 63.875 83.125 62.625 84.2083L56.0416 89.875C53.1666 92.3333 48.4583 92.3333 45.5416 89.875L38.9583 84.2083C37.7083 83.125 35.375 82.25 33.7083 82.25H26.5C22.0833 82.25 18.4583 78.625 18.4583 74.2083V67.0833C18.4583 65.4583 17.5833 63.125 16.5416 61.875L10.9166 55.25C8.49996 52.375 8.49996 47.7083 10.9166 44.8333L16.5416 38.2083C17.5833 36.9583 18.4583 34.625 18.4583 33V25.8333C18.4583 21.4167 22.0833 17.7917 26.5 17.7917H33.7083C35.3333 17.7917 37.7083 16.9167 38.9583 15.8333L45.5416 10.2083Z" stroke="#D7BC70" stroke-width="3.5" stroke-linecap="round" stroke-linejoin="round"/>
</svg>
